<svg width="18" height="18" viewBox="0 0 18 18" fill="none" xmlns="http://www.w3.org/2000/svg">
<path fill-rule="evenodd" clip-rule="evenodd" d="M13.4063 8.90625C13.8206 8.90625 14.1563 9.24204 14.1563 9.65625V9.95523C14.7116 10.0829 15.2136 10.3493 15.6198 10.7167L16.0008 10.4718C16.3492 10.2478 16.8132 10.3487 17.0372 10.6971C17.2612 11.0455 17.1603 11.5096 16.8119 11.7336L16.4638 11.9574C16.5882 12.2925 16.6563 12.6542 16.6563 13.0312C16.6563 13.4084 16.5882 13.7702 16.4637 14.1053L16.8116 14.3289C17.16 14.5529 17.2609 15.017 17.0369 15.3654C16.8129 15.7138 16.3489 15.8147 16.0004 15.5907L15.6196 15.3459C15.2135 15.7132 14.7116 15.9796 14.1563 16.1073V16.4062C14.1563 16.8205 13.8206 17.1562 13.4063 17.1562C12.9921 17.1562 12.6563 16.8205 12.6563 16.4062V16.1073C12.1011 15.9796 11.5992 15.7132 11.1931 15.3459L10.8122 15.5907C10.4638 15.8147 9.99978 15.7138 9.77579 15.3654C9.55179 15.017 9.65265 14.5529 10.0011 14.3289L10.349 14.1053C10.2245 13.7702 10.1563 13.4084 10.1563 13.0312C10.1563 12.6542 10.2245 12.2925 10.3489 11.9574L10.0008 11.7336C9.65234 11.5096 9.55147 11.0455 9.77547 10.6971C9.99946 10.3487 10.4635 10.2478 10.8119 10.4718L11.1929 10.7167C11.599 10.3493 12.1011 10.0829 12.6563 9.95523V9.65625C12.6563 9.24204 12.9921 8.90625 13.4063 8.90625ZM13.4063 11.3705C12.7877 11.3705 12.2524 11.6736 11.9425 12.121C11.7605 12.3837 11.6563 12.6957 11.6563 13.0312C11.6563 13.3668 11.7605 13.6789 11.9426 13.9416C12.2525 14.3889 12.7877 14.692 13.4063 14.692C14.0249 14.692 14.5602 14.3889 14.8701 13.9416C15.0521 13.6789 15.1563 13.3669 15.1563 13.0312C15.1563 12.6957 15.0522 12.3837 14.8702 12.121C14.5603 11.6736 14.025 11.3705 13.4063 11.3705Z" fill="#334EAC"/>
<path d="M4.21853 4.78125C4.21853 2.60663 5.9814 0.84375 8.15603 0.84375C10.3306 0.84375 12.0935 2.60663 12.0935 4.78125C12.0935 6.95587 10.3306 8.71875 8.15603 8.71875C5.9814 8.71875 4.21853 6.95587 4.21853 4.78125Z" fill="#334EAC"/>
<path d="M8.72615 9.86262C8.13475 9.82344 7.5399 9.84528 6.95234 9.92815C5.85398 10.0831 4.77993 10.4514 3.80129 11.0341C3.71408 11.0861 3.60637 11.1468 3.48442 11.2156C2.94981 11.5172 2.14156 11.9732 1.58793 12.5151C1.24168 12.854 0.912692 13.3007 0.852883 13.8478C0.789278 14.4297 1.04313 14.9758 1.55239 15.4609C2.43097 16.298 3.48531 16.9688 4.84905 16.9688H8.6874C9.22291 16.9688 9.49067 16.9688 9.51118 16.9265C9.5317 16.8843 9.34001 16.6405 8.95664 16.1528C8.91134 16.0951 8.86873 16.0354 8.82912 15.9738C8.38701 15.2861 8.45112 14.4182 8.92634 13.8078C9.0017 13.711 9.03938 13.6626 9.05143 13.6215C9.06348 13.5804 9.05848 13.5255 9.04847 13.4158C9.0369 13.289 9.03099 13.1608 9.03099 13.0312C9.03099 12.9019 9.03689 12.7737 9.04844 12.647C9.05844 12.5373 9.06344 12.4824 9.05138 12.4413C9.03932 12.4002 9.00163 12.3518 8.92625 12.255C8.45082 11.6445 8.38662 10.7765 8.8288 10.0887C8.88712 9.99801 8.83376 9.86975 8.72615 9.86262Z" fill="#334EAC"/>
</svg>
