<svg width="76" height="75" viewBox="0 0 76 75" fill="none" xmlns="http://www.w3.org/2000/svg">
<g opacity="0.5" filter="url(#filter0_f_73_163370)">
<path d="M51.4804 38.0685L47.5001 22.9241C46.0564 17.4308 42.443 14.9677 37.6919 16.2275L21.6005 20.4945C16.7715 21.775 14.9016 25.6921 16.3453 31.1854L20.3256 46.3298C21.7926 51.9116 25.3199 54.3009 30.1489 53.0204L46.2403 48.7534C50.9915 47.4935 52.9474 43.6502 51.4804 38.0685Z" fill="#325BE8"/>
</g>
<foreignObject x="8.88281" y="4.12891" width="78.5732" height="78.791"><div xmlns="http://www.w3.org/1999/xhtml" style="backdrop-filter:blur(7.5px);clip-path:url(#bgblur_0_73_163370_clip_path);height:100%;width:100%"></div></foreignObject><g data-figma-bg-blur-radius="15">
<mask id="path-2-inside-1_73_163370" fill="white">
<path d="M59.5248 19.1289H36.8357C28.5674 19.1289 23.8828 23.8344 23.8828 32.1396V54.9083C23.8828 63.2135 28.5674 67.919 36.8357 67.919H59.5248C67.793 67.919 72.4561 63.2135 72.4561 54.9083V32.1396C72.4561 23.8344 67.793 19.1289 59.5248 19.1289Z"/>
</mask>
<path d="M59.5248 19.1289H36.8357C28.5674 19.1289 23.8828 23.8344 23.8828 32.1396V54.9083C23.8828 63.2135 28.5674 67.919 36.8357 67.919H59.5248C67.793 67.919 72.4561 63.2135 72.4561 54.9083V32.1396C72.4561 23.8344 67.793 19.1289 59.5248 19.1289Z" fill="#334EAC" fill-opacity="0.5"/>
<path d="M59.5248 20.1289C60.0771 20.1289 60.5248 19.6812 60.5248 19.1289C60.5248 18.5766 60.0771 18.1289 59.5248 18.1289V19.1289V20.1289ZM59.5248 18.1289C58.9725 18.1289 58.5248 18.5766 58.5248 19.1289C58.5248 19.6812 58.9725 20.1289 59.5248 20.1289V19.1289V18.1289ZM59.5248 19.1289V18.1289H36.8357V19.1289V20.1289H59.5248V19.1289ZM36.8357 19.1289V18.1289C32.5144 18.1289 28.9915 19.3619 26.55 21.8143C24.1091 24.266 22.8828 27.8023 22.8828 32.1396H23.8828H24.8828C24.8828 28.1717 25.9988 25.2027 27.9673 23.2253C29.9352 21.2487 32.8887 20.1289 36.8357 20.1289V19.1289ZM23.8828 32.1396H22.8828V54.9083H23.8828H24.8828V32.1396H23.8828ZM23.8828 54.9083H22.8828C22.8828 59.2456 24.1091 62.7819 26.55 65.2336C28.9915 67.686 32.5144 68.919 36.8357 68.919V67.919V66.919C32.8887 66.919 29.9352 65.7992 27.9673 63.8226C25.9988 61.8452 24.8828 58.8762 24.8828 54.9083H23.8828ZM36.8357 67.919V68.919H59.5248V67.919V66.919H36.8357V67.919ZM59.5248 67.919V68.919C63.8461 68.919 67.3642 67.6859 69.8006 65.2327C72.2358 62.7806 73.4561 59.2443 73.4561 54.9083H72.4561H71.4561C71.4561 58.8774 70.3447 61.8465 68.3815 63.8234C66.4192 65.7993 63.4717 66.919 59.5248 66.919V67.919ZM72.4561 54.9083H73.4561V32.1396H72.4561H71.4561V54.9083H72.4561ZM72.4561 32.1396H73.4561C73.4561 27.8036 72.2358 24.2673 69.8006 21.8152C67.3642 19.362 63.8461 18.1289 59.5248 18.1289V19.1289V20.1289C63.4717 20.1289 66.4192 21.2486 68.3815 23.2245C70.3447 25.2014 71.4561 28.1705 71.4561 32.1396H72.4561Z" fill="url(#paint0_linear_73_163370)" mask="url(#path-2-inside-1_73_163370)"/>
</g>
<foreignObject x="-4.35547" y="-4.89062" width="73.8701" height="80.2656"><div xmlns="http://www.w3.org/1999/xhtml" style="backdrop-filter:blur(6.5px);clip-path:url(#bgblur_1_73_163370_clip_path);height:100%;width:100%"></div></foreignObject><path opacity="0.88" data-figma-bg-blur-radius="13" d="M18.4406 14.6468L40.3587 8.74767C48.346 6.59794 54.063 9.93075 56.203 17.9529L56.515 19.1228H36.7243C28.456 19.1228 23.7714 23.8283 23.7714 32.1335V54.9022C23.7714 57.8699 24.3696 60.378 25.5157 62.376C20.4052 61.9896 16.7575 58.6115 15.1472 52.5748L9.28041 30.5819C7.14043 22.5597 10.4534 16.7966 18.4406 14.6468Z" fill="#334EAC"/>
<g opacity="0.5" filter="url(#filter3_f_73_163370)">
<path d="M56.6264 19.1289H36.8357C28.5674 19.1289 23.8828 23.8344 23.8828 32.1396V54.9083C23.8828 57.876 24.481 60.3841 25.6271 62.3821C27.3079 62.5091 29.1469 62.3126 31.1237 61.7805L53.0418 55.8814C61.029 53.7317 64.3211 47.9741 62.1811 39.9519L56.6264 19.1289Z" fill="url(#paint1_linear_73_163370)"/>
</g>
<g filter="url(#filter4_d_73_163370)">
<g filter="url(#filter5_d_73_163370)">
<path fill-rule="evenodd" clip-rule="evenodd" d="M51.1621 33.7445C48.9619 33.6893 47.3272 33.6893 45.1269 33.7445L45.0427 33.7466C43.3447 33.7892 41.9476 33.8242 40.8215 34.0201C39.6263 34.228 38.6256 34.6328 37.7781 35.4826C36.9349 36.3279 36.5312 37.3128 36.3267 38.489C36.1348 39.5929 36.1057 40.9551 36.0706 42.6038L36.0688 42.6887C36.0448 43.8113 36.0448 44.4074 36.0688 45.5301L36.0706 45.6149C36.1057 47.2636 36.1348 48.6258 36.3267 49.7297C36.5312 50.906 36.9349 51.8909 37.7781 52.7362C38.6257 53.5859 39.6264 53.9908 40.8215 54.1987C41.9476 54.3945 43.3447 54.4296 45.0427 54.4721L45.127 54.4742C47.3272 54.5294 48.9619 54.5294 51.1621 54.4742L51.2463 54.4721C52.9443 54.4295 54.3415 54.3945 55.4676 54.1986C56.6627 53.9908 57.6634 53.5859 58.511 52.7362C59.3541 51.8909 59.7579 50.9059 59.9624 49.7297C60.1543 48.6258 60.1833 47.2636 60.2185 45.6149L60.2203 45.5301C60.2443 44.4074 60.2443 43.8113 60.2203 42.6887L60.2185 42.6039C60.1833 40.9552 60.1543 39.5929 59.9624 38.4891C59.7578 37.3128 59.3541 36.3279 58.511 35.4826C58.0347 35.0051 57.51 34.668 56.9297 34.4275C56.8414 34.3793 56.7467 34.3429 56.6481 34.3197C56.2771 34.1889 55.8841 34.0926 55.4676 34.0201C54.3415 33.8242 52.9443 33.7892 51.2463 33.7466L51.1621 33.7445ZM57.9093 40.566C57.8875 40.1098 57.8766 39.8817 57.7114 39.7906C57.5462 39.6995 57.3431 39.8146 56.937 40.0447L52.1718 42.7447C50.7097 43.5732 49.4732 44.1094 48.1443 44.1094C46.8155 44.1094 45.5789 43.5732 44.1169 42.7447L39.352 40.045C38.9459 39.8148 38.7428 39.6998 38.5776 39.7908C38.4124 39.8819 38.4015 40.11 38.3798 40.5662C38.3505 41.181 38.3346 41.8938 38.3166 42.7365C38.2933 43.8273 38.2933 44.3915 38.3166 45.4822C38.3541 47.2372 38.3825 48.4286 38.5419 49.3455C38.692 50.2089 38.9425 50.7218 39.3709 51.1514C39.7949 51.5764 40.3148 51.8312 41.2073 51.9864C42.1502 52.1504 43.3801 52.1842 45.1834 52.2294C47.346 52.2837 48.943 52.2837 51.1056 52.2294C52.909 52.1841 54.1388 52.1504 55.0818 51.9864C55.9742 51.8312 56.4942 51.5764 56.9182 51.1514C57.3466 50.7218 57.5971 50.2089 57.7472 49.3455C57.9066 48.4286 57.935 47.2372 57.9725 45.4822C57.9958 44.3915 57.9958 43.8273 57.9725 42.7365C57.9545 41.8937 57.9386 41.1808 57.9093 40.566Z" fill="url(#paint2_linear_73_163370)"/>
</g>
</g>
<defs>
<filter id="filter0_f_73_163370" x="2.87012" y="2.9043" width="62.0879" height="63.4531" filterUnits="userSpaceOnUse" color-interpolation-filters="sRGB">
<feFlood flood-opacity="0" result="BackgroundImageFix"/>
<feBlend mode="normal" in="SourceGraphic" in2="BackgroundImageFix" result="shape"/>
<feGaussianBlur stdDeviation="6.5" result="effect1_foregroundBlur_73_163370"/>
</filter>
<clipPath id="bgblur_0_73_163370_clip_path" transform="translate(-8.88281 -4.12891)"><path d="M59.5248 19.1289H36.8357C28.5674 19.1289 23.8828 23.8344 23.8828 32.1396V54.9083C23.8828 63.2135 28.5674 67.919 36.8357 67.919H59.5248C67.793 67.919 72.4561 63.2135 72.4561 54.9083V32.1396C72.4561 23.8344 67.793 19.1289 59.5248 19.1289Z"/>
</clipPath><clipPath id="bgblur_1_73_163370_clip_path" transform="translate(4.35547 4.89062)"><path d="M18.4406 14.6468L40.3587 8.74767C48.346 6.59794 54.063 9.93075 56.203 17.9529L56.515 19.1228H36.7243C28.456 19.1228 23.7714 23.8283 23.7714 32.1335V54.9022C23.7714 57.8699 24.3696 60.378 25.5157 62.376C20.4052 61.9896 16.7575 58.6115 15.1472 52.5748L9.28041 30.5819C7.14043 22.5597 10.4534 16.7966 18.4406 14.6468Z"/>
</clipPath><filter id="filter3_f_73_163370" x="11.8828" y="7.12891" width="62.9365" height="67.291" filterUnits="userSpaceOnUse" color-interpolation-filters="sRGB">
<feFlood flood-opacity="0" result="BackgroundImageFix"/>
<feBlend mode="normal" in="SourceGraphic" in2="BackgroundImageFix" result="shape"/>
<feGaussianBlur stdDeviation="6" result="effect1_foregroundBlur_73_163370"/>
</filter>
<filter id="filter4_d_73_163370" x="29.6445" y="25.6094" width="47" height="47" filterUnits="userSpaceOnUse" color-interpolation-filters="sRGB">
<feFlood flood-opacity="0" result="BackgroundImageFix"/>
<feColorMatrix in="SourceAlpha" type="matrix" values="0 0 0 0 0 0 0 0 0 0 0 0 0 0 0 0 0 0 127 0" result="hardAlpha"/>
<feOffset dx="5" dy="5"/>
<feGaussianBlur stdDeviation="5"/>
<feColorMatrix type="matrix" values="0 0 0 0 0.290196 0 0 0 0 0.384314 0 0 0 0 0.713726 0 0 0 0.5 0"/>
<feBlend mode="normal" in2="BackgroundImageFix" result="effect1_dropShadow_73_163370"/>
<feBlend mode="normal" in="SourceGraphic" in2="effect1_dropShadow_73_163370" result="shape"/>
</filter>
<filter id="filter5_d_73_163370" x="31.0508" y="28.7031" width="44.1875" height="40.8125" filterUnits="userSpaceOnUse" color-interpolation-filters="sRGB">
<feFlood flood-opacity="0" result="BackgroundImageFix"/>
<feColorMatrix in="SourceAlpha" type="matrix" values="0 0 0 0 0 0 0 0 0 0 0 0 0 0 0 0 0 0 127 0" result="hardAlpha"/>
<feOffset dx="5" dy="5"/>
<feGaussianBlur stdDeviation="5"/>
<feColorMatrix type="matrix" values="0 0 0 0 0.290196 0 0 0 0 0.384314 0 0 0 0 0.713726 0 0 0 0.5 0"/>
<feBlend mode="normal" in2="BackgroundImageFix" result="effect1_dropShadow_73_163370"/>
<feBlend mode="normal" in="SourceGraphic" in2="effect1_dropShadow_73_163370" result="shape"/>
</filter>
<linearGradient id="paint0_linear_73_163370" x1="31.6149" y1="24.813" x2="62.7667" y2="63.2238" gradientUnits="userSpaceOnUse">
<stop stop-color="white" stop-opacity="0.25"/>
<stop offset="1" stop-color="white" stop-opacity="0"/>
</linearGradient>
<linearGradient id="paint1_linear_73_163370" x1="46.2175" y1="43.6731" x2="10.7073" y2="59.2023" gradientUnits="userSpaceOnUse">
<stop stop-color="#325BE8"/>
<stop offset="1" stop-color="#334EAC"/>
</linearGradient>
<linearGradient id="paint2_linear_73_163370" x1="29.8033" y1="48.995" x2="37.3968" y2="68.7565" gradientUnits="userSpaceOnUse">
<stop stop-color="white"/>
<stop offset="1" stop-color="white" stop-opacity="0.2"/>
</linearGradient>
</defs>
</svg>
