<svg width="17" height="17" viewBox="0 0 17 17" fill="none" xmlns="http://www.w3.org/2000/svg">
<path d="M0.600586 5.52641C0.600586 4.62928 0.962372 4.07947 1.71106 3.66282L4.79299 1.94769C6.40791 1.04897 7.21537 0.599609 8.10059 0.599609C8.9858 0.599609 9.79326 1.04897 11.4082 1.94769L14.4901 3.66282C15.2388 4.07947 15.6006 4.62928 15.6006 5.52641C15.6006 5.76968 15.6006 5.89132 15.574 5.99132C15.4344 6.51669 14.9584 6.59961 14.4986 6.59961L1.70255 6.59961C1.24279 6.59961 0.766726 6.51669 0.627151 5.99132C0.600586 5.89132 0.600586 5.76968 0.600586 5.52641Z" stroke="#191919" stroke-width="1.2"/>
<path d="M8.09751 4.34961H8.10425" stroke="#191919" stroke-width="1.7" stroke-linecap="round" stroke-linejoin="round"/>
<path d="M2.10059 6.59961L2.10059 12.9746M5.10059 6.59961L5.10059 12.9746" stroke="#191919" stroke-width="1.2"/>
<path d="M11.1006 6.59961L11.1006 12.9746M14.1006 6.59961L14.1006 12.9746" stroke="#191919" stroke-width="1.2"/>
<path d="M13.3506 12.9746L2.85059 12.9746C1.60795 12.9746 0.600586 13.982 0.600586 15.2246C0.600586 15.4317 0.768479 15.5996 0.975586 15.5996L15.2256 15.5996C15.4327 15.5996 15.6006 15.4317 15.6006 15.2246C15.6006 13.982 14.5932 12.9746 13.3506 12.9746Z" stroke="#191919" stroke-width="1.2"/>
</svg>
